<svg width="633" height="127" viewBox="0 0 633 127" fill="none" xmlns="http://www.w3.org/2000/svg">
<g clip-path="url(#clip0)">
<path d="M38.171 53.203L62.759 28.616L87.36 53.216L101.667 38.909L62.759 0L23.864 38.896L38.171 53.203Z" fill="white"/>
<path d="M28.0675 63.3033L13.7607 48.9966L-0.546717 63.304L13.76 77.6108L28.0675 63.3033Z" fill="white"/>
<path d="M38.171 73.408L62.759 97.995L87.359 73.396L101.674 87.695L101.667 87.703L62.759 126.611L23.863 87.716L23.843 87.696L38.171 73.408Z" fill="white"/>
<path d="M111.759 77.6175L126.066 63.3101L111.759 49.0033L97.4519 63.3108L111.759 77.6175Z" fill="white"/>
<path d="M77.2709 63.2978H77.2769L62.7589 48.7798L52.0299 59.5088H52.0289L50.7969 60.7418L48.2539 63.2848L48.2339 63.3048L48.2539 63.3258L62.7589 77.8308L77.2769 63.3128L77.2839 63.3048L77.2709 63.2978Z" fill="white"/>
<path d="M148.37 30.6792H179.487C187.21 30.6792 193.05 32.6612 197.008 36.6252C200.071 39.6952 201.602 43.5002 201.602 48.0392V48.2312C201.602 50.1492 201.365 51.8442 200.888 53.3142C200.412 54.7862 199.776 56.1112 198.981 57.2942C198.188 58.4782 197.266 59.5172 196.218 60.4112C195.169 61.3072 194.042 62.0752 192.835 62.7132C196.717 64.1852 199.773 66.1822 202.001 68.7082C204.228 71.2352 205.343 74.7362 205.343 79.2112V79.4022C205.343 82.4722 204.753 85.1572 203.572 87.4602C202.391 89.7612 200.699 91.6802 198.496 93.2152C196.293 94.7502 193.644 95.9002 190.548 96.6682C187.452 97.4352 184.021 97.8182 180.256 97.8182H148.37V30.6792ZM176.376 57.8222C179.638 57.8222 182.228 57.2642 184.145 56.1442C186.063 55.0252 187.022 53.2182 187.022 50.7252V50.5332C187.022 48.2962 186.19 46.5862 184.528 45.4022C182.865 44.2192 180.467 43.6272 177.335 43.6272H162.756V57.8222H176.376ZM180.309 84.8712C183.57 84.8712 186.126 84.2812 187.982 83.0972C189.836 81.9142 190.764 80.0752 190.764 77.5812V77.3902C190.764 75.1522 189.9 73.3782 188.174 72.0662C186.447 70.7572 183.666 70.1012 179.829 70.1012H162.756V84.8722H180.309V84.8712Z" fill="white"/>
<path d="M223.875 30.6792H238.647V97.8202H223.875V30.6792Z" fill="white"/>
<path d="M261.02 30.6792H274.638L306.099 72.0192V30.6792H320.678V97.8202H308.114L275.598 55.1382V97.8202H261.02V30.6792Z" fill="white"/>
<path d="M365.398 30.2002H379.017L407.793 97.8202H392.35L386.211 82.7622H357.82L351.682 97.8202H336.621L365.398 30.2002ZM380.936 69.7162L372.015 47.9442L363.097 69.7162H380.936Z" fill="white"/>
<path d="M423.738 30.6792H437.359L468.818 72.0192V30.6792H483.397V97.8202H470.833L438.317 55.1382V97.8202H423.738V30.6792Z" fill="white"/>
<path d="M536.557 98.9698C531.631 98.9698 527.061 98.0738 522.84 96.2848C518.619 94.4958 514.975 92.0488 511.906 88.9468C508.836 85.8458 506.437 82.1848 504.713 77.9648C502.986 73.7438 502.123 69.2358 502.123 64.4398V64.2488C502.123 59.4528 502.986 54.9618 504.713 50.7728C506.438 46.5848 508.836 42.9078 511.906 39.7428C514.974 36.5778 518.652 34.0828 522.935 32.2608C527.218 30.4388 531.953 29.5278 537.132 29.5278C540.263 29.5278 543.124 29.7848 545.714 30.2948C548.304 30.8078 550.653 31.5098 552.765 32.4048C554.876 33.3008 556.824 34.3878 558.617 35.6658C560.404 36.9458 562.068 38.3518 563.603 39.8868L554.205 50.7248C551.58 48.3598 548.912 46.5038 546.195 45.1618C543.476 43.8198 540.424 43.1478 537.035 43.1478C534.221 43.1478 531.615 43.6918 529.219 44.7788C526.821 45.8658 524.758 47.3678 523.031 49.2858C521.306 51.2038 519.963 53.4268 519.002 55.9518C518.045 58.4788 517.566 61.1798 517.566 64.0568V64.2478C517.566 67.1248 518.045 69.8438 519.002 72.3998C519.963 74.9588 521.287 77.1958 522.984 79.1138C524.677 81.0318 526.724 82.5518 529.121 83.6708C531.521 84.7908 534.158 85.3488 537.035 85.3488C540.873 85.3488 544.115 84.6458 546.769 83.2388C549.423 81.8338 552.062 79.9148 554.683 77.4838L564.083 86.9798C562.356 88.8348 560.563 90.4978 558.712 91.9668C556.857 93.4388 554.827 94.7008 552.62 95.7568C550.415 96.8108 547.999 97.6118 545.38 98.1538C542.756 98.6968 539.816 98.9698 536.557 98.9698Z" fill="white"/>
<path d="M581.467 30.6792H632.014V43.8202H596.047V57.4402H627.699V70.5802H596.047V84.6802H632.496V97.8202H581.467V30.6792Z" fill="white"/>
</g>
<defs>
<clipPath id="clip0">
<rect width="632.014" height="126.611" fill="white"/>
</clipPath>
</defs>
</svg>
