<svg width="240" height="240" viewBox="0 0 240 240" fill="none" xmlns="http://www.w3.org/2000/svg">
<path fill-rule="evenodd" clip-rule="evenodd" d="M240 120C240 186.274 186.274 240 120 240C53.7258 240 0 186.274 0 120C0 53.7258 53.7258 0 120 0C186.274 0 240 53.7258 240 120ZM147.481 172.959L117.495 150.805L103.081 164.82L102.944 164.953C101.332 166.522 99.999 167.82 97.0813 167.82C94.0354 167.82 93.7814 166.919 93.1695 164.749C93.0003 164.149 92.8037 163.452 92.5133 162.65L82.313 129.081L52.6543 119.823C46.2493 117.862 46.2023 113.46 54.0923 110.295L169.682 65.724C174.962 63.327 180.057 66.993 178.042 75.073L158.357 167.836C156.982 174.427 153 176.004 147.481 172.959Z" fill="white"/>
</svg>
